<?xml version="1.0" standalone="no"?>
<!DOCTYPE svg PUBLIC "-//W3C//DTD SVG 20010904//EN"
 "http://www.w3.org/TR/2001/REC-SVG-20010904/DTD/svg10.dtd">
<svg version="1.0" xmlns="http://www.w3.org/2000/svg"
 width="700.000000pt" height="700.000000pt" viewBox="0 0 700.000000 700.000000"
 preserveAspectRatio="xMidYMid meet">
<metadata>
Created by potrace 1.11, written by Peter Selinger 2001-2013
</metadata>
<g transform="translate(0.000000,700.000000) scale(0.100000,-0.100000)"
fill="#000000" stroke="none">
<path d="M3278 6995 c-2 -1 -39 -5 -83 -9 -89 -7 -144 -13 -225 -26 -30 -5
-75 -12 -100 -15 -24 -4 -47 -8 -51 -10 -3 -2 -21 -7 -40 -10 -216 -38 -538
-148 -802 -274 -702 -336 -1285 -919 -1628 -1628 -32 -68 -59 -125 -59 -127 0
-3 -11 -29 -24 -58 -43 -96 -112 -298 -142 -413 -4 -16 -8 -34 -10 -40 -5 -16
-25 -98 -30 -120 -29 -143 -35 -178 -49 -266 -36 -228 -41 -696 -10 -913 3
-17 7 -49 9 -71 10 -83 18 -131 26 -165 5 -19 12 -48 14 -65 9 -48 13 -65 36
-155 21 -85 73 -257 89 -295 5 -11 25 -65 46 -120 50 -132 181 -398 250 -508
30 -49 55 -90 55 -93 0 -3 4 -10 10 -17 5 -7 46 -64 91 -126 166 -236 380
-468 594 -646 33 -28 62 -52 65 -55 31 -33 389 -280 407 -280 3 0 14 -6 22
-14 26 -22 219 -120 353 -179 288 -127 624 -224 913 -262 22 -2 56 -7 75 -10
186 -26 698 -27 838 0 16 3 104 15 147 20 184 24 541 126 772 221 651 269
1212 735 1598 1329 213 327 386 729 471 1098 2 9 6 27 9 40 14 60 55 299 60
352 4 33 9 71 11 85 9 48 11 525 4 605 -17 172 -22 220 -25 225 -2 3 -6 30
-10 60 -9 75 -69 337 -99 435 -135 446 -345 845 -627 1195 -466 578 -1085 986
-1798 1185 -93 26 -302 71 -371 80 -19 3 -46 7 -60 10 -13 2 -52 7 -86 11 -33
3 -74 8 -90 10 -32 5 -540 14 -546 9z"/>
</g>
</svg>
