<?xml version="1.0" encoding="UTF-8"?>
<svg width="963px" height="235px" viewBox="0 0 963 235" version="1.1" xmlns="http://www.w3.org/2000/svg" xmlns:xlink="http://www.w3.org/1999/xlink">
    <!-- Generator: Sketch 62 (91390) - https://sketch.com -->
    <title>Untitled</title>
    <desc>Created with Sketch.</desc>
    <defs>
        <filter x="-1.3%" y="-5.5%" width="102.5%" height="111.1%" filterUnits="objectBoundingBox" id="filter-1">
            <feOffset dx="0" dy="2" in="SourceAlpha" result="shadowOffsetOuter1"></feOffset>
            <feGaussianBlur stdDeviation="2" in="shadowOffsetOuter1" result="shadowBlurOuter1"></feGaussianBlur>
            <feColorMatrix values="0 0 0 0 0.760076993   0 0 0 0 0.760076993   0 0 0 0 0.760076993  0 0 0 0.5 0" type="matrix" in="shadowBlurOuter1" result="shadowMatrixOuter1"></feColorMatrix>
            <feMerge>
                <feMergeNode in="shadowMatrixOuter1"></feMergeNode>
                <feMergeNode in="SourceGraphic"></feMergeNode>
            </feMerge>
        </filter>
    </defs>
    <g id="Page-1" stroke="none" stroke-width="1" fill="none" fill-rule="evenodd">
        <g id="Group" filter="url(#filter-1)" transform="translate(9.000000, 9.000000)">
            <text id="TrailFinder" font-family="Montserrat-Black, Montserrat" font-size="159" font-weight="700" letter-spacing="0.944554455" fill="#4FD0DA">
                <tspan x="0" y="177">TrailFinder</tspan>
            </text>
            <circle id="Oval" fill="#4FD0DA" fill-rule="nonzero" cx="783.1" cy="32.1" r="5.2"></circle>
            <path d="M795,55.8 L794.4,49.8 L794.5,49.8 C795.7,50.1 796.8,49.4 797.2,48.2 C797.5,47 796.8,45.9 795.6,45.5 L793.9,45.1 L793.5,41.8 C793.5,41.4 793.2,41.2 792.8,41.1 L789.4,40.7 C788.5,39.4 787.8,38.5 786.5,38.5 L779.8,38.5 C778.2,38.5 777.4,39.8 776.2,41.8 C776.1,41.9 776.1,42 776,42.1 L772.4,41.7 C772.2,41.7 771.9,41.8 771.8,41.9 C771.6,42.1 771.5,42.3 771.6,42.5 L772,46.6 L770.2,48.1 C769.3,48.9 769.1,50.2 769.9,51.2 C770.3,51.7 771,52 771.6,52 C771.9,52 772.3,51.9 772.6,51.7 L773.1,56.5 C773.1,56.9 773.4,57.1 773.8,57.2 L778.1,57.7 L776,74.6 C775.8,76 776.8,77.2 778.2,77.4 C778.3,77.4 778.4,77.4 778.5,77.4 C779.7,77.4 780.8,76.5 781,75.2 L783.3,57.2 L783.3,57.2 L785.6,75.2 C785.8,76.5 786.8,77.4 788.1,77.4 C788.2,77.4 788.3,77.4 788.4,77.4 C789.8,77.2 790.8,76 790.6,74.6 L788,55.9 L794.1,56.6 C794.2,56.6 794.2,56.6 794.3,56.6 C794.5,56.6 794.6,56.5 794.8,56.4 C794.9,56.3 795,56 795,55.8 Z M774.5,55.8 L773.2,43.5 L778.5,44.1 L779.8,56.4 L774.5,55.8 Z M781.4,56.3 L780,44 L785.1,42.2 L786.4,54.5 L781.4,56.3 Z M788,54.4 L786.7,42.1 L792,42.7 L793.3,55 L788,54.4 Z" id="Shape" fill="#4FD0DA" fill-rule="nonzero"></path>
            <path d="M755.756248,21.7256874 C747.1147,14.7453389 759.828702,12.8506729 765.589734,6.76779777 C771.350766,0.68492267 763.801827,0.286045615 763.801827,0.286045615 C763.801827,0.286045615 770.854125,2.57958868 754.56431,7.96442893 C738.274496,13.4489884 737.579199,22.3240029 741.353668,25.2158616 C745.823434,28.6063166 752.776404,32.3956486 736.883902,40.1737512 C726.553775,45.2594336 722.58925,54.8117909 721,59 C733.709952,60 736.528097,60 737.620707,60 L756.196791,60 C757.388728,60 756.892088,58.0969119 756.196791,57 C754.1109,53.5098258 752.677076,48.7496079 761.119968,42.9658906 C778.403064,31.2987367 762.907874,27.4096854 755.756248,21.7256874 Z" id="Path" fill="#4FD0DA" fill-rule="nonzero"></path>
            <path d="M725,40.2 L724.7,31.5 L730.9,31.5 C731.8,31.5 732.4,30.4 731.8,29.7 L728.3,25.4 L730,25.4 C730.8,25.4 731.2,24.5 730.7,23.9 L727.4,19.8 L728.5,19.8 C729,19.8 729.3,19.2 729,18.7 L723.3,11.6 C723,11.3 722.6,11.3 722.3,11.6 L716.6,18.7 C716.3,19.1 716.6,19.8 717.1,19.8 L718.2,19.8 L714.9,23.9 C714.4,24.5 714.8,25.4 715.6,25.4 L717.3,25.4 L713.8,29.7 C713.2,30.4 713.7,31.5 714.7,31.5 L720.9,31.5 L720.6,40.2 C720.6,40.8 722,40.9 722.8,40.9 C723.6,40.9 725,40.8 725,40.2 Z" id="Path" fill="#49A244" fill-rule="nonzero"></path>
            <path d="M774.1,14 L778.3,14 L778.1,19.9 C778.1,20.3 779,20.3 779.6,20.3 C780.2,20.3 781.1,20.3 781.1,19.9 L780.9,14 L785.1,14 C785.7,14 786.1,13.3 785.7,12.8 L783.3,9.8 L784.5,9.8 C785,9.8 785.3,9.2 785,8.7 L782.8,5.9 L783.5,5.9 C783.9,5.9 784.1,5.5 783.8,5.2 L780,0.4 C779.8,0.2 779.5,0.2 779.3,0.4 L775.4,5.2 C775.2,5.5 775.4,5.9 775.7,5.9 L776.4,5.9 L774.2,8.7 C773.9,9.1 774.2,9.8 774.7,9.8 L775.9,9.8 L773.5,12.8 C773.1,13.2 773.4,14 774.1,14 Z" id="Path" fill="#49A244" fill-rule="nonzero"></path>
        </g>
    </g>
</svg>